<?xml version="1.0" encoding="utf-8"?><!-- Uploaded to: SVG Repo, www.svgrepo.com, Generator: SVG Repo Mixer Tools -->
<svg width="800px" height="800px" viewBox="0 0 24 24" fill="none" xmlns="http://www.w3.org/2000/svg">
<circle cx="15.5" cy="10.5" r="1.5" stroke="#200E32" stroke-width="2"/>
<circle cx="15.5" cy="16.5" r="1.5" stroke="#200E32" stroke-width="2"/>
<path d="M10 13.5C10 14.3284 9.32843 15 8.5 15C7.67157 15 7 14.3284 7 13.5C7 12.6716 7.67157 12 8.5 12C9.32843 12 10 12.6716 10 13.5Z" stroke="#200E32" stroke-width="2"/>
<path d="M14 11L9 13" stroke="#200E32" stroke-width="2"/>
<path d="M14 16L9 14" stroke="#200E32" stroke-width="2"/>
<path d="M2 20V4C2 3.44772 2.44772 3 3 3H8.44792C8.79153 3 9.11108 3.17641 9.29416 3.46719L10.5947 5.53281C10.7778 5.82359 11.0974 6 11.441 6H21C21.5523 6 22 6.44772 22 7V20C22 20.5523 21.5523 21 21 21H3C2.44772 21 2 20.5523 2 20Z" stroke="#200E32" stroke-width="2"/>
</svg>