<svg xmlns="http://www.w3.org/2000/svg" xmlns:xlink="http://www.w3.org/1999/xlink" width="1080" zoomAndPan="magnify" viewBox="0 0 810 809.999993" height="1080" preserveAspectRatio="xMidYMid meet" version="1.0"><defs><g/><clipPath id="6f055f8b4b"><path d="M 283 508 L 561 508 L 561 689 L 283 689 Z M 283 508 " clip-rule="nonzero"/></clipPath><clipPath id="8416853b62"><path d="M -142.695312 209.753906 L 1112.578125 185.820312 L 1130.515625 1126.902344 L -124.753906 1150.832031 Z M -142.695312 209.753906 " clip-rule="nonzero"/></clipPath><clipPath id="2864c1bd99"><path d="M -142.695312 209.753906 L 1112.578125 185.820312 L 1130.515625 1126.902344 L -124.753906 1150.832031 Z M -142.695312 209.753906 " clip-rule="nonzero"/></clipPath><clipPath id="bd4bb91a54"><path d="M 222.511719 432.316406 L 614.722656 424.839844 L 620.328125 718.996094 L 228.121094 726.472656 Z M 222.511719 432.316406 " clip-rule="nonzero"/></clipPath><clipPath id="afde76c0d0"><path d="M 478 397 L 550 397 L 550 509 L 478 509 Z M 478 397 " clip-rule="nonzero"/></clipPath><clipPath id="0d6d9c3e28"><path d="M 533.277344 390.15625 L 560.253906 406.25 L 494.96875 515.675781 L 467.988281 499.578125 Z M 533.277344 390.15625 " clip-rule="nonzero"/></clipPath><clipPath id="6e255d3859"><path d="M 546.765625 398.203125 C 539.316406 393.757812 518.660156 414.648438 500.632812 444.867188 C 482.605469 475.082031 474.027344 503.183594 481.476562 507.625 C 488.929688 512.070312 509.582031 491.179688 527.613281 460.964844 C 545.640625 430.746094 554.214844 402.648438 546.765625 398.203125 Z M 546.765625 398.203125 " clip-rule="nonzero"/></clipPath><clipPath id="59ce567773"><path d="M 468 453 L 519 453 L 519 578 L 468 578 Z M 468 453 " clip-rule="nonzero"/></clipPath><clipPath id="0915f53430"><path d="M 489.574219 448.972656 L 528.792969 458.71875 L 498.066406 582.375 L 458.84375 572.632812 Z M 489.574219 448.972656 " clip-rule="nonzero"/></clipPath><clipPath id="5334ee8506"><path d="M 509.183594 453.84375 C 498.351562 451.152344 482.695312 476.652344 474.207031 510.800781 C 465.722656 544.949219 467.625 574.8125 478.453125 577.503906 C 489.285156 580.195312 504.945312 554.695312 513.429688 520.546875 C 521.914062 486.398438 520.011719 456.535156 509.183594 453.84375 Z M 509.183594 453.84375 " clip-rule="nonzero"/></clipPath><clipPath id="1d5d38aae1"><path d="M 409 159 L 679 159 L 679 430 L 409 430 Z M 409 159 " clip-rule="nonzero"/></clipPath><clipPath id="982c5a4f1e"><path d="M 406.621094 452.910156 L 393.945312 165.1875 L 681.667969 152.515625 L 694.339844 440.234375 Z M 406.621094 452.910156 " clip-rule="nonzero"/></clipPath><clipPath id="5af755b23f"><path d="M 406.621094 452.910156 L 393.945312 165.1875 L 681.667969 152.515625 L 694.339844 440.234375 Z M 406.621094 452.910156 " clip-rule="nonzero"/></clipPath><clipPath id="e362128823"><path d="M 407 177 L 521 177 L 521 288 L 407 288 Z M 407 177 " clip-rule="nonzero"/></clipPath><clipPath id="32dd1cae15"><path d="M 406.621094 452.910156 L 393.945312 165.1875 L 681.667969 152.515625 L 694.339844 440.234375 Z M 406.621094 452.910156 " clip-rule="nonzero"/></clipPath><clipPath id="d989ebfab9"><path d="M 406.621094 452.910156 L 393.945312 165.1875 L 681.667969 152.515625 L 694.339844 440.234375 Z M 406.621094 452.910156 " clip-rule="nonzero"/></clipPath><clipPath id="7383d0a094"><path d="M 503 393 L 549 393 L 549 458 L 503 458 Z M 503 393 " clip-rule="nonzero"/></clipPath><clipPath id="22db2ae264"><path d="M 525.792969 386.289062 L 557.273438 401.964844 L 526.066406 464.648438 L 494.582031 448.972656 Z M 525.792969 386.289062 " clip-rule="nonzero"/></clipPath><clipPath id="0c10b00e5e"><path d="M 541.535156 394.128906 C 532.839844 389.796875 518.808594 400.320312 510.1875 417.632812 C 501.570312 434.941406 501.628906 452.480469 510.324219 456.808594 C 519.015625 461.136719 533.050781 450.613281 541.667969 433.304688 C 550.289062 415.996094 550.226562 398.457031 541.535156 394.128906 Z M 541.535156 394.128906 " clip-rule="nonzero"/></clipPath><clipPath id="f25b024b1e"><path d="M 476 386 L 546 386 L 546 424 L 476 424 Z M 476 386 " clip-rule="nonzero"/></clipPath><clipPath id="a671786a95"><path d="M 542.300781 381.65625 L 548.355469 416.296875 L 479.378906 428.355469 L 473.324219 393.710938 Z M 542.300781 381.65625 " clip-rule="nonzero"/></clipPath><clipPath id="9c6d3fa486"><path d="M 545.328125 398.976562 C 543.65625 389.410156 526.859375 384.355469 507.8125 387.683594 C 488.765625 391.011719 474.679688 401.464844 476.351562 411.03125 C 478.023438 420.597656 494.820312 425.65625 513.867188 422.324219 C 532.914062 418.996094 547 408.542969 545.328125 398.976562 Z M 545.328125 398.976562 " clip-rule="nonzero"/></clipPath><clipPath id="e67b1bd950"><path d="M 462 393 L 508 393 L 508 458 L 462 458 Z M 462 393 " clip-rule="nonzero"/></clipPath><clipPath id="5ca6ce98e2"><path d="M 484.90625 386.289062 L 516.386719 401.964844 L 485.175781 464.648438 L 453.695312 448.972656 Z M 484.90625 386.289062 " clip-rule="nonzero"/></clipPath><clipPath id="b3be76ffa4"><path d="M 500.648438 394.128906 C 491.953125 389.796875 477.917969 400.320312 469.300781 417.632812 C 460.683594 434.941406 460.742188 452.480469 469.4375 456.808594 C 478.128906 461.136719 492.164062 450.613281 500.78125 433.304688 C 509.402344 415.996094 509.339844 398.457031 500.648438 394.128906 Z M 500.648438 394.128906 " clip-rule="nonzero"/></clipPath><clipPath id="640c024e86"><path d="M 468 411 L 513 411 L 513 477 L 468 477 Z M 468 411 " clip-rule="nonzero"/></clipPath><clipPath id="6fd62eacb7"><path d="M 490.054688 405.003906 L 521.535156 420.675781 L 490.324219 483.359375 L 458.84375 467.683594 Z M 490.054688 405.003906 " clip-rule="nonzero"/></clipPath><clipPath id="8147cdab9f"><path d="M 505.792969 412.839844 C 497.101562 408.511719 483.066406 419.035156 474.449219 436.34375 C 465.828125 453.652344 465.890625 471.195312 474.585938 475.523438 C 483.277344 479.851562 497.3125 469.328125 505.929688 452.019531 C 514.546875 434.710938 514.488281 417.167969 505.792969 412.839844 Z M 505.792969 412.839844 " clip-rule="nonzero"/></clipPath><clipPath id="b3a8a15467"><path d="M 458 411 L 500 411 L 500 478 L 458 478 Z M 458 411 " clip-rule="nonzero"/></clipPath><clipPath id="bda374b9a3"><path d="M 475.386719 405.34375 L 508.148438 418.128906 L 482.6875 483.359375 L 449.925781 470.574219 Z M 475.386719 405.34375 " clip-rule="nonzero"/></clipPath><clipPath id="156aaff4b7"><path d="M 491.765625 411.734375 C 482.71875 408.203125 469.6875 419.945312 462.65625 437.957031 C 455.625 455.96875 457.261719 473.433594 466.308594 476.964844 C 475.355469 480.496094 488.386719 468.757812 495.417969 450.746094 C 502.449219 432.730469 500.8125 415.265625 491.765625 411.734375 Z M 491.765625 411.734375 " clip-rule="nonzero"/></clipPath><clipPath id="1e2ca252da"><path d="M 450 430 L 506 430 L 506 525 L 450 525 Z M 450 430 " clip-rule="nonzero"/></clipPath><clipPath id="8fd86ec02a"><path d="M 469.5 423.371094 L 516.386719 438.34375 L 486.574219 531.707031 L 439.6875 516.730469 Z M 469.5 423.371094 " clip-rule="nonzero"/></clipPath><clipPath id="741c34d7d8"><path d="M 492.945312 430.859375 C 479.996094 426.722656 462.824219 444.269531 454.59375 470.050781 C 446.359375 495.832031 450.183594 520.085938 463.128906 524.21875 C 476.078125 528.355469 493.25 510.804688 501.480469 485.023438 C 509.714844 459.242188 505.890625 434.992188 492.945312 430.859375 Z M 492.945312 430.859375 " clip-rule="nonzero"/></clipPath><clipPath id="60c28c412d"><path d="M 436 459 L 496 459 L 496 580 L 436 580 Z M 436 459 " clip-rule="nonzero"/></clipPath><clipPath id="50a5bde943"><path d="M 470.523438 452.914062 L 508.148438 467.664062 L 461.636719 586.292969 L 424.011719 571.542969 Z M 470.523438 452.914062 " clip-rule="nonzero"/></clipPath><clipPath id="150cae4b6d"><path d="M 489.335938 460.289062 C 478.945312 456.214844 460.113281 479.46875 447.269531 512.226562 C 434.425781 544.988281 432.433594 574.84375 442.824219 578.917969 C 453.214844 582.992188 472.046875 559.738281 484.890625 526.980469 C 497.734375 494.222656 499.726562 464.363281 489.335938 460.289062 Z M 489.335938 460.289062 " clip-rule="nonzero"/></clipPath><clipPath id="0af810cfad"><path d="M 395.128906 545.882812 L 522.550781 545.882812 L 522.550781 586.296875 L 395.128906 586.296875 Z M 395.128906 545.882812 " clip-rule="nonzero"/></clipPath><clipPath id="2865a3f8d7"><path d="M 522.550781 566.089844 C 522.550781 554.929688 494.027344 545.882812 458.839844 545.882812 C 423.652344 545.882812 395.128906 554.929688 395.128906 566.089844 C 395.128906 577.25 423.652344 586.292969 458.839844 586.292969 C 494.027344 586.292969 522.550781 577.25 522.550781 566.089844 Z M 522.550781 566.089844 " clip-rule="nonzero"/></clipPath></defs><g clip-path="url(#6f055f8b4b)"><g clip-path="url(#8416853b62)"><g clip-path="url(#2864c1bd99)"><g clip-path="url(#bd4bb91a54)"><path fill="#f13d59" d="M 400.261719 508.460938 C 375.308594 508.933594 360.746094 526.8125 396.929688 526.121094 C 421.882812 525.644531 436.445312 507.761719 400.261719 508.460938 Z M 478.976562 516.976562 C 454.191406 517.449219 436.308594 523.472656 431.632812 533.667969 C 383.605469 533.144531 344.09375 550.6875 354.636719 561.984375 C 356.007812 563.460938 354.867188 565.183594 351.683594 565.398438 C 271.921875 570.84375 257.785156 607.0625 334.863281 616.726562 C 338.125 617.140625 338.816406 619.492188 337.300781 621.046875 C 318.980469 639.8125 359.960938 652.515625 420.441406 651.359375 C 482.21875 650.183594 515.453125 638.910156 504.472656 621.882812 C 502.050781 618.125 503.195312 615.410156 508.359375 614.769531 C 589.925781 604.710938 568.304688 558.992188 497.847656 555.898438 C 483.488281 555.269531 486.761719 548.390625 491.976562 547.621094 C 550.503906 538.988281 514.351562 516.300781 478.976562 516.976562 Z M 534.996094 632.738281 C 514.535156 633.507812 504.609375 647.359375 536.128906 648.9375 C 559.3125 650.097656 572.839844 634.457031 539.214844 632.769531 C 537.765625 632.699219 536.359375 632.691406 534.996094 632.746094 Z M 337.601562 659.675781 C 298.320312 660.425781 281.171875 689.109375 338.140625 688.023438 C 377.421875 687.273438 394.578125 658.585938 337.601562 659.675781 Z M 337.601562 659.675781 " fill-opacity="1" fill-rule="nonzero"/></g></g></g></g><g clip-path="url(#afde76c0d0)"><g clip-path="url(#0d6d9c3e28)"><g clip-path="url(#6e255d3859)"><path fill="#ff6c83" d="M 533.277344 390.15625 L 560.253906 406.25 L 494.96875 515.675781 L 467.988281 499.578125 Z M 533.277344 390.15625 " fill-opacity="1" fill-rule="nonzero"/></g></g></g><g clip-path="url(#59ce567773)"><g clip-path="url(#0915f53430)"><g clip-path="url(#5334ee8506)"><path fill="#ff6c83" d="M 489.574219 448.972656 L 528.792969 458.71875 L 498.066406 582.375 L 458.84375 572.632812 Z M 489.574219 448.972656 " fill-opacity="1" fill-rule="nonzero"/></g></g></g><g clip-path="url(#1d5d38aae1)"><g clip-path="url(#982c5a4f1e)"><g clip-path="url(#5af755b23f)"><path fill="#532056" d="M 536.152344 163.027344 L 521.640625 178.996094 C 537.308594 183.859375 550.992188 194.257812 561.210938 210.007812 C 572.136719 226.792969 578.445312 248.179688 579.488281 271.871094 C 580.078125 285.277344 578.929688 298.910156 576.09375 312.398438 C 575.53125 315.035156 573.984375 317.277344 571.738281 318.753906 C 569.496094 320.226562 566.785156 320.734375 564.160156 320.15625 C 559.652344 319.199219 556.375 315.320312 556.175781 310.746094 C 556.136719 309.878906 556.214844 309.011719 556.402344 308.222656 C 558.933594 296.308594 559.949219 284.328125 559.433594 272.585938 C 558.558594 252.671875 553.339844 234.835938 544.375 221.003906 C 535.855469 207.914062 524.570312 199.566406 511.714844 196.855469 C 509.761719 196.464844 507.75 196.640625 505.753906 196.472656 L 409.527344 302.3125 C 409.527344 302.3125 405.605469 331.164062 461.203125 381.84375 C 516.835938 432.585938 547.078125 429.167969 547.078125 429.167969 C 547.078125 429.167969 663.558594 302.464844 675.191406 289.777344 C 686.855469 277.089844 669.433594 239.25 627.753906 201.21875 C 585.957031 163.191406 546.003906 152.304688 536.152344 163.027344 Z M 541.96875 407.285156 C 533.722656 416.273438 501.539062 400.21875 470 371.523438 C 438.496094 342.804688 419.660156 312.226562 427.90625 303.253906 C 436.136719 294.28125 468.339844 310.316406 499.84375 339.035156 C 531.367188 367.78125 550.203125 398.332031 541.96875 407.285156 Z M 541.96875 407.285156 " fill-opacity="1" fill-rule="evenodd"/></g></g></g><g clip-path="url(#e362128823)"><g clip-path="url(#32dd1cae15)"><g clip-path="url(#d989ebfab9)"><path fill="#532056" d="M 515.449219 178.761719 C 469.4375 169.074219 421.082031 213.054688 407.625 276.859375 C 406.722656 281.433594 409.566406 285.859375 414.09375 286.832031 C 418.617188 287.769531 423.054688 284.875 424.027344 280.347656 C 435.078125 227.855469 471.847656 190.683594 507.457031 194.613281 L 520.394531 180.359375 C 518.726562 179.855469 517.164062 179.109375 515.449219 178.761719 Z M 515.449219 178.761719 " fill-opacity="1" fill-rule="evenodd"/></g></g></g><g clip-path="url(#7383d0a094)"><g clip-path="url(#22db2ae264)"><g clip-path="url(#0c10b00e5e)"><path fill="#ff6c83" d="M 525.792969 386.289062 L 557.273438 401.964844 L 526.066406 464.648438 L 494.582031 448.972656 Z M 525.792969 386.289062 " fill-opacity="1" fill-rule="nonzero"/></g></g></g><g clip-path="url(#f25b024b1e)"><g clip-path="url(#a671786a95)"><g clip-path="url(#9c6d3fa486)"><path fill="#ff6c83" d="M 542.300781 381.65625 L 548.355469 416.296875 L 479.378906 428.355469 L 473.324219 393.710938 Z M 542.300781 381.65625 " fill-opacity="1" fill-rule="nonzero"/></g></g></g><g clip-path="url(#e67b1bd950)"><g clip-path="url(#5ca6ce98e2)"><g clip-path="url(#b3be76ffa4)"><path fill="#ff6c83" d="M 484.90625 386.289062 L 516.386719 401.964844 L 485.175781 464.648438 L 453.695312 448.972656 Z M 484.90625 386.289062 " fill-opacity="1" fill-rule="nonzero"/></g></g></g><g clip-path="url(#640c024e86)"><g clip-path="url(#6fd62eacb7)"><g clip-path="url(#8147cdab9f)"><path fill="#ff6c83" d="M 490.054688 405.003906 L 521.535156 420.675781 L 490.324219 483.359375 L 458.84375 467.683594 Z M 490.054688 405.003906 " fill-opacity="1" fill-rule="nonzero"/></g></g></g><g clip-path="url(#b3a8a15467)"><g clip-path="url(#bda374b9a3)"><g clip-path="url(#156aaff4b7)"><path fill="#ff6c83" d="M 475.386719 405.34375 L 508.148438 418.128906 L 482.6875 483.359375 L 449.925781 470.574219 Z M 475.386719 405.34375 " fill-opacity="1" fill-rule="nonzero"/></g></g></g><g clip-path="url(#1e2ca252da)"><g clip-path="url(#8fd86ec02a)"><g clip-path="url(#741c34d7d8)"><path fill="#ff6c83" d="M 469.5 423.371094 L 516.386719 438.34375 L 486.574219 531.707031 L 439.683594 516.730469 Z M 469.5 423.371094 " fill-opacity="1" fill-rule="nonzero"/></g></g></g><g clip-path="url(#60c28c412d)"><g clip-path="url(#50a5bde943)"><g clip-path="url(#150cae4b6d)"><path fill="#ff6c83" d="M 470.523438 452.914062 L 508.148438 467.664062 L 461.636719 586.292969 L 424.011719 571.542969 Z M 470.523438 452.914062 " fill-opacity="1" fill-rule="nonzero"/></g></g></g><g clip-path="url(#0af810cfad)"><g clip-path="url(#2865a3f8d7)"><path fill="#ff6c83" d="M 522.550781 545.882812 L 522.550781 586.296875 L 395.128906 586.296875 L 395.128906 545.882812 Z M 522.550781 545.882812 " fill-opacity="1" fill-rule="nonzero"/></g></g><g fill="#383a49" fill-opacity="1"><g transform="translate(339.266146, 613.537138)"><g><path d="M 11.457031 2.289062 C 13.574219 2.539062 15.597656 2.253906 17.539062 1.328125 C 19.3125 0.492188 20.917969 -0.683594 22.453125 -2.175781 C 23.765625 -3.542969 24.597656 -5.277344 25.007812 -7.425781 C 25.386719 -9.738281 25.046875 -11.765625 23.886719 -13.472656 C 23.40625 -14.265625 22.832031 -15.167969 22.082031 -15.9375 C 21.808594 -16.285156 21.476562 -16.585938 21.199219 -16.878906 C 20.78125 -17.347656 20.316406 -17.820312 19.898438 -18.289062 C 18.785156 -19.519531 17.984375 -20.714844 17.445312 -21.929688 C 17.238281 -22.371094 17.136719 -22.855469 17.082031 -23.28125 C 16.976562 -23.710938 17.128906 -24.113281 17.433594 -24.496094 C 17.785156 -24.820312 18.222656 -24.976562 18.636719 -24.929688 C 18.6875 -24.921875 18.792969 -24.910156 18.84375 -24.90625 C 18.941406 -24.839844 19.042969 -24.828125 19.140625 -24.765625 C 19.644531 -24.601562 20.203125 -24.429688 20.75 -24.210938 C 21.703125 -23.835938 22.722656 -23.613281 24.109375 -23.394531 C 24.375 -23.417969 24.683594 -23.378906 24.996094 -23.34375 C 25.671875 -23.316406 26.296875 -23.296875 26.929688 -23.328125 C 29.347656 -23.410156 31.707031 -24.335938 34.121094 -26.144531 C 34.871094 -26.738281 35.425781 -27.457031 35.84375 -28.351562 C 36.125 -28.945312 36.199219 -29.566406 36 -30.113281 C 35.808594 -30.710938 35.335938 -31.132812 34.746094 -31.464844 C 34.300781 -31.675781 33.800781 -31.890625 33.34375 -31.996094 C 32.726562 -32.121094 32.210938 -32.183594 31.695312 -32.242188 C 30.816406 -32.34375 29.984375 -32.390625 29.191406 -32.328125 C 25.746094 -31.945312 22.753906 -30.988281 20.042969 -29.320312 C 19.585938 -29.007812 19.136719 -28.746094 18.644531 -28.542969 C 18.527344 -28.449219 18.417969 -28.410156 18.25 -28.324219 C 17.96875 -28.148438 17.652344 -28.132812 17.34375 -28.171875 C 17.03125 -28.207031 16.78125 -28.289062 16.539062 -28.472656 C 14.90625 -29.714844 13.613281 -31.175781 12.613281 -32.914062 C 12.476562 -33.089844 12.390625 -33.253906 12.304688 -33.421875 C 12.226562 -33.640625 12.140625 -33.808594 12.054688 -33.976562 C 12.011719 -34.03125 11.816406 -34.160156 11.507812 -34.195312 C 11.351562 -34.214844 11.242188 -34.175781 11.140625 -34.1875 C 10.867188 -34.113281 10.632812 -33.878906 10.660156 -33.667969 C 10.617188 -33.304688 10.632812 -32.992188 10.703125 -32.71875 C 10.894531 -32.121094 11.242188 -31.503906 11.742188 -30.871094 C 12.425781 -30.003906 13.125 -29.242188 13.957031 -28.308594 C 14.191406 -28.070312 14.421875 -27.832031 14.710938 -27.589844 C 14.800781 -27.472656 14.898438 -27.410156 14.988281 -27.296875 C 15.652344 -26.695312 15.871094 -25.882812 15.515625 -25.085938 C 14.890625 -23.800781 15.0625 -22.574219 15.90625 -20.851562 C 16.683594 -19.453125 17.578125 -18.144531 18.597656 -17.027344 C 19.195312 -16.328125 19.800781 -15.683594 20.410156 -15.085938 L 20.78125 -14.675781 C 21.710938 -13.679688 22.46875 -12.542969 22.902344 -11.339844 C 23.152344 -10.785156 23.242188 -10.199219 23.285156 -9.671875 C 23.300781 -8.9375 23.214844 -8.214844 23.136719 -7.542969 C 22.757812 -5.648438 22.019531 -4.269531 20.90625 -3.25 C 19.964844 -2.367188 18.929688 -1.597656 17.910156 -0.929688 C 16.722656 -0.179688 15.570312 0.261719 14.398438 0.4375 C 13.335938 0.574219 12.289062 0.554688 11.359375 0.445312 C 8.574219 0.117188 6.214844 -1.207031 4.339844 -3.519531 C 2.914062 -5.207031 2.355469 -7.105469 2.75 -9.152344 C 2.757812 -9.203125 2.761719 -9.257812 2.722656 -9.367188 C 2.730469 -9.417969 2.742188 -9.519531 2.753906 -9.625 C 3.296875 -13.800781 5.027344 -16.949219 7.960938 -19.167969 L 8.019531 -19.214844 C 8.183594 -19.300781 8.359375 -19.4375 8.480469 -19.578125 C 8.652344 -19.714844 8.730469 -19.917969 8.753906 -20.121094 C 8.777344 -20.328125 8.652344 -20.605469 8.414062 -20.789062 C 8.277344 -20.964844 8.128906 -21.035156 7.972656 -21.050781 C 7.867188 -21.0625 7.8125 -21.019531 7.648438 -20.984375 L 7.59375 -20.941406 C 7.375 -20.859375 7.101562 -20.789062 6.980469 -20.644531 C 5.898438 -19.882812 5.082031 -19.191406 4.410156 -18.382812 C 3.230469 -16.792969 2.347656 -15.0625 1.722656 -13.304688 C 1.140625 -11.488281 0.8125 -9.589844 0.796875 -7.65625 C 0.816406 -7.390625 0.832031 -7.074219 0.90625 -6.804688 L 0.898438 -6.753906 C 1.183594 -4.730469 2.179688 -2.9375 4.054688 -1.09375 C 5.503906 0.386719 7.332031 1.332031 9.664062 1.972656 C 10.277344 2.097656 10.890625 2.222656 11.457031 2.289062 Z M 24.484375 -25.238281 C 24.433594 -25.242188 24.382812 -25.25 24.328125 -25.253906 C 24.175781 -25.273438 23.96875 -25.296875 23.710938 -25.328125 C 23.710938 -25.328125 23.660156 -25.332031 23.605469 -25.339844 C 23.554688 -25.347656 23.503906 -25.351562 23.398438 -25.363281 C 23.097656 -25.453125 22.539062 -25.621094 21.984375 -25.792969 C 21.582031 -25.945312 21.058594 -26.371094 21.125 -26.941406 C 21.167969 -27.300781 21.300781 -27.546875 21.433594 -27.792969 C 21.433594 -27.792969 21.441406 -27.847656 21.441406 -27.847656 C 21.632812 -28.136719 21.910156 -28.261719 22.023438 -28.351562 C 24.574219 -29.570312 26.800781 -30.253906 28.972656 -30.46875 C 29.929688 -30.566406 30.816406 -30.566406 31.59375 -30.472656 C 31.851562 -30.445312 32.109375 -30.414062 32.359375 -30.332031 C 32.515625 -30.3125 32.664062 -30.242188 32.8125 -30.171875 C 32.867188 -30.167969 32.867188 -30.167969 32.917969 -30.160156 C 33.265625 -30.015625 33.546875 -29.722656 33.644531 -29.238281 C 33.753906 -28.808594 33.699219 -28.34375 33.402344 -28.0625 C 33.398438 -28.011719 33.339844 -27.964844 33.339844 -27.964844 C 33.222656 -27.875 33.152344 -27.726562 32.980469 -27.589844 C 30.5 -25.628906 27.789062 -24.847656 24.949219 -25.183594 C 24.847656 -25.195312 24.792969 -25.199219 24.691406 -25.210938 C 24.640625 -25.21875 24.589844 -25.222656 24.484375 -25.238281 Z M 24.484375 -25.238281 "/></g></g></g><g fill="#383a49" fill-opacity="1"><g transform="translate(366.635606, 616.754448)"><g><path d="M -9.71875 9.644531 C -9.460938 9.671875 -9.183594 9.546875 -9.050781 9.300781 C -8.558594 8.679688 -8.113281 8 -7.667969 7.320312 L -7.300781 6.890625 C -7.230469 6.742188 -7.167969 6.644531 -7.105469 6.546875 C -6.972656 6.300781 -6.785156 6.0625 -6.601562 5.820312 C -6.414062 5.582031 -6.171875 5.296875 -5.988281 5.054688 C -5.742188 4.769531 -5.5 4.484375 -5.257812 4.199219 C -5.195312 4.101562 -5.078125 4.011719 -5.007812 3.863281 C -4.582031 3.335938 -4.152344 2.808594 -3.820312 2.222656 C -3.496094 1.683594 -3.0625 1.105469 -2.628906 0.527344 C -2.511719 0.4375 -2.390625 0.292969 -2.261719 0.101562 C -2.199219 0.00390625 -2.078125 -0.140625 -2.015625 -0.238281 C -1.835938 -0.425781 -1.707031 -0.621094 -1.527344 -0.808594 C -1.03125 -1.480469 -0.53125 -2.15625 0.0117188 -2.773438 C 0.253906 -3.058594 0.484375 -3.242188 0.671875 -3.480469 C 0.84375 -3.617188 0.960938 -3.710938 1.082031 -3.851562 C 1.261719 -4.039062 1.445312 -4.28125 1.675781 -4.460938 C 2.039062 -4.890625 2.40625 -5.320312 2.816406 -5.691406 C 3.699219 -6.527344 4.628906 -7.308594 5.5 -8.042969 C 5.617188 -8.136719 5.730469 -8.226562 5.847656 -8.316406 C 6.429688 -8.824219 7.070312 -9.378906 7.84375 -9.707031 C 8.117188 -9.832031 8.402344 -10.007812 8.679688 -10.132812 C 8.792969 -10.222656 8.953125 -10.257812 9.070312 -10.347656 C 10.1875 -10.949219 11.273438 -11.292969 12.441406 -11.417969 C 12.597656 -11.398438 12.707031 -11.4375 12.859375 -11.421875 C 13.324219 -11.367188 13.855469 -10.988281 13.921875 -10.195312 C 13.929688 -9.828125 13.894531 -9.519531 13.851562 -9.15625 C 13.707031 -8.386719 13.46875 -7.683594 13.132812 -7.042969 C 13.011719 -6.898438 12.933594 -6.699219 12.800781 -6.453125 C 12.597656 -6.058594 12.386719 -5.613281 12.082031 -5.230469 C 11.582031 -4.554688 10.976562 -3.839844 10.320312 -3.183594 C 9.910156 -2.8125 9.457031 -2.5 8.789062 -2.160156 C 8.066406 -1.828125 7.359375 -1.59375 6.664062 -1.46875 C 6.457031 -1.492188 6.296875 -1.457031 6.085938 -1.429688 C 5.074219 -1.289062 3.953125 -1.105469 2.816406 -1.238281 C 2.765625 -1.246094 2.710938 -1.25 2.609375 -1.265625 C 2.246094 -1.304688 1.902344 -1.03125 1.859375 -0.671875 C 1.757812 -0.265625 2.027344 0.132812 2.382812 0.226562 C 2.535156 0.246094 2.691406 0.265625 2.792969 0.277344 C 3.054688 0.304688 3.3125 0.335938 3.574219 0.316406 C 4.15625 0.277344 4.882812 0.3125 5.582031 0.183594 L 5.792969 0.15625 C 6.796875 0.0664062 7.707031 -0.0898438 8.585938 -0.457031 C 8.914062 -0.574219 9.242188 -0.695312 9.679688 -0.851562 C 10.988281 -1.273438 12.304688 -1.800781 13.695312 -2.472656 C 14.914062 -3.0625 16.429688 -3.933594 17.492188 -5.378906 C 17.804688 -5.8125 17.78125 -6.078125 17.652344 -6.300781 C 17.527344 -6.578125 17.382812 -6.699219 17.074219 -6.734375 C 17.023438 -6.742188 16.972656 -6.75 16.917969 -6.753906 C 16.707031 -6.726562 16.488281 -6.648438 16.136719 -6.324219 C 15.957031 -6.132812 15.738281 -6.054688 15.53125 -6.078125 C 15.429688 -6.09375 15.277344 -6.160156 15.183594 -6.226562 C 14.882812 -6.367188 14.773438 -6.746094 14.867188 -7.101562 C 14.882812 -7.253906 14.953125 -7.40625 14.972656 -7.558594 C 15.113281 -7.855469 15.199219 -8.160156 15.238281 -8.46875 C 15.398438 -9.394531 15.546875 -10.214844 15.277344 -11.03125 C 15.050781 -11.789062 14.59375 -12.367188 13.894531 -12.660156 C 13.648438 -12.792969 13.347656 -12.882812 13.089844 -12.910156 C 12.984375 -12.921875 12.882812 -12.9375 12.777344 -12.949219 C 12.09375 -12.921875 11.355469 -12.855469 10.644531 -12.621094 C 10.421875 -12.492188 10.152344 -12.417969 9.933594 -12.339844 C 9.550781 -12.226562 9.171875 -12.117188 8.839844 -11.945312 C 8.453125 -11.78125 8.117188 -11.609375 7.726562 -11.394531 C 7.503906 -11.265625 7.335938 -11.179688 7.109375 -11.050781 C 7 -11.007812 6.890625 -10.96875 6.78125 -10.929688 C 6.722656 -10.886719 6.667969 -10.839844 6.613281 -10.84375 C 6.449219 -10.761719 6.34375 -10.773438 6.191406 -10.789062 C 6.035156 -10.808594 5.835938 -10.882812 5.742188 -11 C 5.515625 -11.289062 5.449219 -11.609375 5.589844 -11.910156 C 5.652344 -12.003906 5.710938 -12.050781 5.722656 -12.15625 C 5.785156 -12.25 5.855469 -12.402344 5.917969 -12.496094 C 5.988281 -12.648438 6.058594 -12.796875 6.179688 -12.9375 C 6.3125 -13.183594 6.441406 -13.378906 6.574219 -13.625 C 6.703125 -13.820312 6.734375 -14.078125 6.65625 -14.296875 C 6.613281 -14.40625 6.476562 -14.578125 6.285156 -14.707031 C 6.1875 -14.769531 6.082031 -14.78125 5.980469 -14.792969 C 5.671875 -14.832031 5.386719 -14.65625 5.191406 -14.3125 C 5.109375 -14.058594 4.972656 -13.8125 4.847656 -13.617188 C 4.777344 -13.46875 4.707031 -13.320312 4.585938 -13.179688 C 4.3125 -12.632812 3.980469 -12.046875 3.597656 -11.460938 C 3.210938 -10.828125 2.761719 -10.144531 2.367188 -9.460938 L 2.242188 -9.265625 C 2.042969 -8.921875 1.800781 -8.636719 1.601562 -8.292969 C 1.410156 -8 1.21875 -7.710938 1.035156 -7.46875 C 0.902344 -7.222656 0.769531 -6.976562 0.582031 -6.738281 C 0.386719 -6.394531 0.136719 -6.058594 -0.0664062 -5.664062 C -0.324219 -5.273438 -0.625 -4.941406 -0.878906 -4.554688 C -1.007812 -4.359375 -1.132812 -4.164062 -1.261719 -3.96875 C -1.511719 -3.632812 -1.765625 -3.242188 -2.015625 -2.90625 C -2.578125 -2.136719 -3.136719 -1.363281 -3.648438 -0.585938 C -3.832031 -0.347656 -4.011719 -0.15625 -4.140625 0.0351562 C -4.378906 0.269531 -4.5625 0.511719 -4.695312 0.757812 C -5.101562 1.546875 -5.652344 2.214844 -6.144531 2.835938 C -6.386719 3.125 -6.578125 3.414062 -6.828125 3.753906 C -7.019531 4.042969 -7.261719 4.328125 -7.5 4.5625 C -7.800781 4.894531 -8.042969 5.179688 -8.242188 5.523438 C -8.378906 5.820312 -8.617188 6.054688 -8.804688 6.296875 C -8.867188 6.390625 -8.980469 6.484375 -9.039062 6.527344 C -9.109375 6.679688 -9.230469 6.820312 -9.300781 6.96875 C -9.421875 7.113281 -9.550781 7.304688 -9.621094 7.457031 C -9.683594 7.550781 -9.746094 7.648438 -9.867188 7.792969 C -9.933594 7.890625 -9.996094 7.988281 -10.058594 8.085938 C -10.128906 8.234375 -10.25 8.375 -10.320312 8.523438 C -10.519531 8.867188 -10.414062 9.300781 -10.074219 9.546875 C -9.976562 9.613281 -9.875 9.625 -9.71875 9.644531 Z M -9.71875 9.644531 "/></g></g></g><g fill="#383a49" fill-opacity="1"><g transform="translate(383.05728, 618.684834)"><g><path d="M 0.15625 0.4375 C 0.417969 0.46875 0.628906 0.441406 0.839844 0.414062 C 1.058594 0.335938 1.273438 0.308594 1.433594 0.273438 C 1.644531 0.246094 1.863281 0.167969 2.078125 0.140625 C 2.832031 -0.0351562 3.382812 -0.28125 3.832031 -0.542969 C 4.570312 -1.035156 5.476562 -1.609375 6.285156 -2.246094 C 7.261719 -2.96875 8.304688 -3.839844 9.523438 -4.847656 C 9.703125 -5.039062 9.777344 -5.238281 9.738281 -5.347656 C 9.761719 -5.554688 9.683594 -5.773438 9.546875 -5.945312 C 9.402344 -6.066406 9.253906 -6.136719 9.101562 -6.15625 C 8.894531 -6.179688 8.625 -6.105469 8.445312 -5.917969 C 7.347656 -5.050781 6.246094 -4.136719 4.976562 -3.132812 C 4.691406 -2.957031 4.410156 -2.78125 4.179688 -2.597656 C 3.953125 -2.46875 3.730469 -2.335938 3.558594 -2.199219 C 2.75 -1.5625 1.828125 -1.304688 1.023438 -1.136719 C 0.8125 -1.109375 0.65625 -1.128906 0.554688 -1.140625 C 0.5 -1.144531 0.449219 -1.152344 0.390625 -1.105469 C 0.390625 -1.105469 0.339844 -1.113281 0.339844 -1.113281 C 0.0820312 -1.140625 -0.113281 -1.269531 -0.242188 -1.496094 C -0.375 -1.71875 -0.394531 -1.984375 -0.320312 -2.183594 C -0.25 -2.332031 -0.179688 -2.480469 -0.160156 -2.636719 C -0.015625 -2.984375 0.128906 -3.335938 0.328125 -3.679688 C 0.90625 -4.605469 1.492188 -5.582031 2.230469 -6.492188 C 2.917969 -7.457031 3.707031 -8.359375 4.664062 -9.398438 C 5.507812 -10.347656 6.394531 -11.183594 7.277344 -12.023438 L 7.394531 -12.113281 C 7.6875 -12.394531 7.851562 -12.898438 7.472656 -13.257812 C 7.335938 -13.429688 7.1875 -13.5 7.035156 -13.519531 C 6.777344 -13.550781 6.550781 -13.417969 6.320312 -13.234375 C 6.019531 -12.90625 5.667969 -12.578125 5.316406 -12.253906 C 5.136719 -12.066406 5.015625 -11.921875 4.839844 -11.785156 C 4.546875 -11.507812 4.308594 -11.273438 4.074219 -11.039062 C 3.105469 -9.949219 2.378906 -9.09375 1.699219 -8.230469 C 0.851562 -7.230469 0.21875 -6.308594 -0.351562 -5.484375 C -0.910156 -4.714844 -1.324219 -3.871094 -1.589844 -2.960938 C -1.898438 -2.109375 -2.023438 -1.496094 -1.785156 -0.839844 C -1.542969 -0.234375 -1.109375 0.078125 -0.351562 0.324219 C -0.203125 0.394531 0.00390625 0.417969 0.15625 0.4375 Z M 11.609375 -17.691406 C 11.761719 -17.675781 11.917969 -17.65625 12.035156 -17.746094 C 12.085938 -17.742188 12.144531 -17.785156 12.195312 -17.78125 C 12.414062 -17.859375 12.582031 -17.945312 12.691406 -17.984375 C 12.976562 -18.210938 13.375 -18.480469 13.675781 -18.8125 C 13.734375 -18.855469 13.804688 -19.003906 13.8125 -19.058594 C 13.816406 -19.109375 13.824219 -19.160156 13.878906 -19.207031 C 13.820312 -19.578125 13.675781 -19.699219 13.585938 -19.816406 C 13.339844 -19.949219 13.140625 -20.027344 12.933594 -20.050781 C 12.726562 -20.074219 12.566406 -20.042969 12.351562 -20.015625 C 11.804688 -19.816406 11.355469 -19.554688 10.945312 -19.183594 C 10.59375 -18.859375 10.539062 -18.394531 10.765625 -18.105469 C 10.898438 -17.882812 11.246094 -17.734375 11.609375 -17.691406 Z M 11.609375 -17.691406 "/></g></g></g><g fill="#383a49" fill-opacity="1"><g transform="translate(390.906638, 619.607535)"><g><path d="M 1.074219 0.230469 C 1.433594 0.273438 1.859375 0.21875 2.238281 0.105469 C 3.261719 -0.140625 4.085938 -0.460938 4.925781 -0.9375 C 6.269531 -1.671875 7.527344 -2.570312 8.738281 -3.527344 L 9.078125 -3.75 C 9.707031 -4.199219 10.347656 -4.753906 10.9375 -5.3125 C 11.226562 -5.539062 11.515625 -5.765625 11.808594 -6.046875 C 12.15625 -6.320312 12.203125 -6.734375 11.984375 -7.074219 C 11.847656 -7.246094 11.703125 -7.367188 11.445312 -7.398438 C 11.289062 -7.417969 11.128906 -7.382812 10.957031 -7.246094 C 10.90625 -7.253906 10.847656 -7.207031 10.789062 -7.160156 C 10.621094 -7.074219 10.511719 -7.035156 10.449219 -6.9375 C 10.339844 -6.898438 10.222656 -6.808594 10.167969 -6.761719 C 9.882812 -6.585938 9.652344 -6.40625 9.53125 -6.261719 C 9.097656 -5.683594 8.578125 -5.273438 8.066406 -4.914062 C 8 -4.820312 7.941406 -4.773438 7.832031 -4.734375 C 7.367188 -4.316406 6.796875 -3.914062 6.058594 -3.425781 C 5.320312 -2.933594 4.523438 -2.398438 3.636719 -1.980469 C 3.1875 -1.71875 2.414062 -1.390625 1.460938 -1.292969 C 1.410156 -1.300781 1.359375 -1.304688 1.304688 -1.3125 C 1.097656 -1.335938 0.949219 -1.40625 0.8125 -1.578125 C 0.625 -1.757812 0.597656 -1.972656 0.628906 -2.230469 C 0.632812 -2.28125 0.648438 -2.382812 0.652344 -2.4375 C 0.671875 -2.589844 0.683594 -2.695312 0.753906 -2.84375 C 0.769531 -3 0.839844 -3.148438 0.851562 -3.25 C 0.921875 -3.398438 1 -3.601562 1.011719 -3.703125 C 1.230469 -4.671875 1.695312 -5.507812 2.101562 -6.296875 C 2.171875 -6.445312 2.292969 -6.589844 2.363281 -6.738281 C 2.695312 -7.328125 3.195312 -7.582031 3.574219 -7.695312 L 3.683594 -7.734375 C 4.289062 -7.976562 4.835938 -8.175781 5.335938 -8.429688 C 6.230469 -8.902344 7.070312 -9.378906 7.867188 -9.914062 C 8.714844 -10.441406 9.523438 -11.078125 10.324219 -11.664062 C 10.726562 -11.984375 11.132812 -12.304688 11.535156 -12.621094 C 11.714844 -12.8125 11.945312 -12.992188 12.121094 -13.128906 C 12.242188 -13.273438 12.40625 -13.359375 12.523438 -13.449219 C 12.695312 -13.585938 12.871094 -13.722656 13.046875 -13.910156 L 13.335938 -14.140625 C 14.34375 -15.121094 15.34375 -16.050781 16.296875 -17.039062 C 16.359375 -17.132812 16.476562 -17.226562 16.589844 -17.316406 C 17.429688 -18.210938 18.261719 -19.058594 18.898438 -20.03125 C 20.164062 -21.871094 20.914062 -23.351562 21.398438 -24.8125 C 21.554688 -25.265625 21.605469 -25.679688 21.570312 -26.261719 C 21.515625 -26.683594 21.296875 -27.078125 20.972656 -27.429688 C 20.925781 -27.488281 20.679688 -27.621094 20.214844 -27.675781 C 19.855469 -27.71875 19.53125 -27.652344 19.476562 -27.605469 C 18.402344 -26.945312 17.539062 -26.261719 16.773438 -25.566406 C 16.429688 -25.292969 16.132812 -25.015625 15.839844 -24.734375 L 15.652344 -24.496094 C 15.480469 -24.359375 15.308594 -24.222656 15.179688 -24.027344 C 14.71875 -23.664062 14.359375 -23.285156 13.945312 -22.863281 C 13.644531 -22.53125 13.277344 -22.105469 12.976562 -21.773438 C 12.730469 -21.433594 12.484375 -21.148438 12.191406 -20.871094 C 11.882812 -20.488281 11.53125 -20.164062 11.226562 -19.78125 C 10.988281 -19.546875 10.75 -19.3125 10.507812 -19.027344 C 9.734375 -18.226562 8.953125 -17.375 8.171875 -16.527344 C 7.757812 -16.105469 7.390625 -15.675781 6.976562 -15.253906 C 6.847656 -15.058594 6.675781 -14.921875 6.496094 -14.734375 C 6.195312 -14.402344 5.835938 -14.027344 5.535156 -13.695312 C 5.292969 -13.410156 5.042969 -13.070312 4.796875 -12.734375 C 4.617188 -12.546875 4.429688 -12.304688 4.25 -12.117188 C 4.136719 -12.027344 4.066406 -11.878906 3.957031 -11.839844 C 3.894531 -11.742188 3.777344 -11.648438 3.714844 -11.554688 C 2.820312 -10.191406 1.929688 -8.832031 1.234375 -7.8125 C 0.59375 -6.839844 0.117188 -5.902344 -0.203125 -4.945312 C -0.519531 -4.039062 -0.789062 -3.078125 -0.90625 -2.097656 C -1.027344 -1.0625 -0.636719 -0.390625 0.308594 0.0351562 C 0.5625 0.117188 0.8125 0.199219 1.074219 0.230469 Z M 18.574219 -24.832031 C 18.675781 -24.820312 18.726562 -24.8125 18.824219 -24.75 C 19.078125 -24.667969 19.253906 -24.386719 19.273438 -24.121094 C 19.300781 -23.4375 19.042969 -23.050781 18.851562 -22.757812 C 18.847656 -22.707031 18.789062 -22.660156 18.78125 -22.609375 C 17.9375 -21.191406 17.183594 -20.125 16.285156 -19.183594 L 15.933594 -18.859375 C 14.621094 -17.496094 13.308594 -16.132812 11.855469 -14.890625 C 11.148438 -14.238281 10.394531 -13.59375 9.648438 -13.054688 C 9.359375 -12.824219 9.074219 -12.597656 8.785156 -12.371094 C 8.546875 -12.136719 8.226562 -12.070312 7.863281 -12.113281 C 7.554688 -12.148438 7.3125 -12.332031 7.1875 -12.609375 C 7.117188 -12.878906 7.152344 -13.191406 7.382812 -13.371094 C 7.511719 -13.566406 7.632812 -13.710938 7.753906 -13.851562 C 8.105469 -14.179688 8.40625 -14.507812 8.714844 -14.890625 C 8.945312 -15.074219 9.179688 -15.308594 9.367188 -15.546875 C 9.660156 -15.828125 9.960938 -16.160156 10.207031 -16.445312 C 11.105469 -17.4375 11.941406 -18.28125 12.664062 -19.085938 C 13.085938 -19.5625 13.457031 -20.042969 13.878906 -20.515625 C 14.179688 -20.847656 14.480469 -21.175781 14.785156 -21.558594 L 14.835938 -21.554688 C 15.445312 -22.269531 16.046875 -22.929688 16.847656 -23.515625 C 16.96875 -23.660156 17.089844 -23.800781 17.210938 -23.945312 C 17.328125 -24.035156 17.390625 -24.132812 17.507812 -24.222656 C 17.628906 -24.367188 17.738281 -24.40625 17.851562 -24.496094 C 17.859375 -24.550781 17.917969 -24.59375 17.976562 -24.640625 C 18.148438 -24.777344 18.367188 -24.855469 18.574219 -24.832031 Z M 18.574219 -24.832031 "/></g></g></g><g fill="#383a49" fill-opacity="1"><g transform="translate(400.408486, 620.724488)"><g><path d="M 1.074219 0.230469 C 1.433594 0.273438 1.859375 0.21875 2.238281 0.105469 C 3.261719 -0.140625 4.085938 -0.460938 4.925781 -0.9375 C 6.269531 -1.671875 7.527344 -2.570312 8.738281 -3.527344 L 9.078125 -3.75 C 9.707031 -4.199219 10.347656 -4.753906 10.9375 -5.3125 C 11.226562 -5.539062 11.515625 -5.765625 11.808594 -6.046875 C 12.15625 -6.320312 12.203125 -6.734375 11.984375 -7.074219 C 11.847656 -7.246094 11.703125 -7.367188 11.445312 -7.398438 C 11.289062 -7.417969 11.128906 -7.382812 10.957031 -7.246094 C 10.90625 -7.253906 10.847656 -7.207031 10.789062 -7.160156 C 10.621094 -7.074219 10.511719 -7.035156 10.449219 -6.9375 C 10.339844 -6.898438 10.222656 -6.808594 10.167969 -6.761719 C 9.882812 -6.585938 9.652344 -6.40625 9.53125 -6.261719 C 9.097656 -5.683594 8.578125 -5.273438 8.066406 -4.914062 C 8 -4.820312 7.941406 -4.773438 7.832031 -4.734375 C 7.367188 -4.316406 6.796875 -3.914062 6.058594 -3.425781 C 5.320312 -2.933594 4.523438 -2.398438 3.636719 -1.980469 C 3.1875 -1.71875 2.414062 -1.390625 1.460938 -1.292969 C 1.410156 -1.300781 1.359375 -1.304688 1.304688 -1.3125 C 1.097656 -1.335938 0.949219 -1.40625 0.8125 -1.578125 C 0.625 -1.757812 0.597656 -1.972656 0.628906 -2.230469 C 0.632812 -2.28125 0.648438 -2.382812 0.652344 -2.4375 C 0.671875 -2.589844 0.683594 -2.695312 0.753906 -2.84375 C 0.769531 -3 0.839844 -3.148438 0.851562 -3.25 C 0.921875 -3.398438 1 -3.601562 1.011719 -3.703125 C 1.230469 -4.671875 1.695312 -5.507812 2.101562 -6.296875 C 2.171875 -6.445312 2.292969 -6.589844 2.363281 -6.738281 C 2.695312 -7.328125 3.195312 -7.582031 3.574219 -7.695312 L 3.683594 -7.734375 C 4.289062 -7.976562 4.835938 -8.175781 5.335938 -8.429688 C 6.230469 -8.902344 7.070312 -9.378906 7.867188 -9.914062 C 8.714844 -10.441406 9.523438 -11.078125 10.324219 -11.664062 C 10.726562 -11.984375 11.132812 -12.304688 11.535156 -12.621094 C 11.714844 -12.8125 11.945312 -12.992188 12.121094 -13.128906 C 12.242188 -13.273438 12.40625 -13.359375 12.523438 -13.449219 C 12.695312 -13.585938 12.871094 -13.722656 13.046875 -13.910156 L 13.335938 -14.140625 C 14.34375 -15.121094 15.34375 -16.050781 16.296875 -17.039062 C 16.359375 -17.132812 16.476562 -17.226562 16.589844 -17.316406 C 17.429688 -18.210938 18.261719 -19.058594 18.898438 -20.03125 C 20.164062 -21.871094 20.914062 -23.351562 21.398438 -24.8125 C 21.554688 -25.265625 21.605469 -25.679688 21.570312 -26.261719 C 21.515625 -26.683594 21.296875 -27.078125 20.972656 -27.429688 C 20.925781 -27.488281 20.679688 -27.621094 20.214844 -27.675781 C 19.855469 -27.71875 19.53125 -27.652344 19.476562 -27.605469 C 18.402344 -26.945312 17.539062 -26.261719 16.773438 -25.566406 C 16.429688 -25.292969 16.132812 -25.015625 15.839844 -24.734375 L 15.652344 -24.496094 C 15.480469 -24.359375 15.308594 -24.222656 15.179688 -24.027344 C 14.71875 -23.664062 14.359375 -23.285156 13.945312 -22.863281 C 13.644531 -22.53125 13.277344 -22.105469 12.976562 -21.773438 C 12.730469 -21.433594 12.484375 -21.148438 12.191406 -20.871094 C 11.882812 -20.488281 11.53125 -20.164062 11.226562 -19.78125 C 10.988281 -19.546875 10.75 -19.3125 10.507812 -19.027344 C 9.734375 -18.226562 8.953125 -17.375 8.171875 -16.527344 C 7.757812 -16.105469 7.390625 -15.675781 6.976562 -15.253906 C 6.847656 -15.058594 6.675781 -14.921875 6.496094 -14.734375 C 6.195312 -14.402344 5.835938 -14.027344 5.535156 -13.695312 C 5.292969 -13.410156 5.042969 -13.070312 4.796875 -12.734375 C 4.617188 -12.546875 4.429688 -12.304688 4.25 -12.117188 C 4.136719 -12.027344 4.066406 -11.878906 3.957031 -11.839844 C 3.894531 -11.742188 3.777344 -11.648438 3.714844 -11.554688 C 2.820312 -10.191406 1.929688 -8.832031 1.234375 -7.8125 C 0.59375 -6.839844 0.117188 -5.902344 -0.203125 -4.945312 C -0.519531 -4.039062 -0.789062 -3.078125 -0.90625 -2.097656 C -1.027344 -1.0625 -0.636719 -0.390625 0.308594 0.0351562 C 0.5625 0.117188 0.8125 0.199219 1.074219 0.230469 Z M 18.574219 -24.832031 C 18.675781 -24.820312 18.726562 -24.8125 18.824219 -24.75 C 19.078125 -24.667969 19.253906 -24.386719 19.273438 -24.121094 C 19.300781 -23.4375 19.042969 -23.050781 18.851562 -22.757812 C 18.847656 -22.707031 18.789062 -22.660156 18.78125 -22.609375 C 17.9375 -21.191406 17.183594 -20.125 16.285156 -19.183594 L 15.933594 -18.859375 C 14.621094 -17.496094 13.308594 -16.132812 11.855469 -14.890625 C 11.148438 -14.238281 10.394531 -13.59375 9.648438 -13.054688 C 9.359375 -12.824219 9.074219 -12.597656 8.785156 -12.371094 C 8.546875 -12.136719 8.226562 -12.070312 7.863281 -12.113281 C 7.554688 -12.148438 7.3125 -12.332031 7.1875 -12.609375 C 7.117188 -12.878906 7.152344 -13.191406 7.382812 -13.371094 C 7.511719 -13.566406 7.632812 -13.710938 7.753906 -13.851562 C 8.105469 -14.179688 8.40625 -14.507812 8.714844 -14.890625 C 8.945312 -15.074219 9.179688 -15.308594 9.367188 -15.546875 C 9.660156 -15.828125 9.960938 -16.160156 10.207031 -16.445312 C 11.105469 -17.4375 11.941406 -18.28125 12.664062 -19.085938 C 13.085938 -19.5625 13.457031 -20.042969 13.878906 -20.515625 C 14.179688 -20.847656 14.480469 -21.175781 14.785156 -21.558594 L 14.835938 -21.554688 C 15.445312 -22.269531 16.046875 -22.929688 16.847656 -23.515625 C 16.96875 -23.660156 17.089844 -23.800781 17.210938 -23.945312 C 17.328125 -24.035156 17.390625 -24.132812 17.507812 -24.222656 C 17.628906 -24.367188 17.738281 -24.40625 17.851562 -24.496094 C 17.859375 -24.550781 17.917969 -24.59375 17.976562 -24.640625 C 18.148438 -24.777344 18.367188 -24.855469 18.574219 -24.832031 Z M 18.574219 -24.832031 "/></g></g></g><g fill="#383a49" fill-opacity="1"><g transform="translate(409.910334, 621.84144)"><g><path d="M 10.316406 1.316406 C 10.316406 1.316406 10.367188 1.324219 10.367188 1.324219 C 10.625 1.355469 10.832031 1.378906 11.039062 1.402344 C 11.246094 1.425781 11.402344 1.445312 11.554688 1.464844 C 12.179688 1.484375 12.824219 1.351562 13.65625 0.976562 L 13.820312 0.890625 C 14.488281 0.550781 15.160156 0.210938 15.734375 -0.246094 C 15.960938 -0.375 16.191406 -0.558594 16.414062 -0.6875 C 16.820312 -1.007812 17.222656 -1.324219 17.628906 -1.644531 C 18.03125 -1.964844 18.390625 -2.339844 18.804688 -2.761719 C 18.980469 -2.898438 19.101562 -3.042969 19.273438 -3.179688 C 19.390625 -3.269531 19.503906 -3.363281 19.625 -3.503906 C 19.980469 -3.828125 20.28125 -4.160156 20.632812 -4.484375 C 20.925781 -4.765625 20.878906 -5.242188 20.597656 -5.535156 C 20.457031 -5.65625 20.308594 -5.726562 20.152344 -5.746094 C 19.945312 -5.769531 19.675781 -5.699219 19.496094 -5.507812 C 19.257812 -5.273438 19.023438 -5.042969 18.785156 -4.808594 C 18.3125 -4.339844 17.835938 -3.871094 17.3125 -3.410156 C 16.492188 -2.667969 15.800781 -2.121094 15.105469 -1.574219 C 14.535156 -1.171875 13.925781 -0.875 13.3125 -0.582031 L 13.199219 -0.492188 C 12.644531 -0.242188 11.984375 0.046875 11.210938 -0.0429688 C 11.105469 -0.0546875 11.007812 -0.121094 10.957031 -0.125 C 10.699219 -0.15625 10.511719 -0.335938 10.375 -0.507812 C 10.292969 -0.726562 10.273438 -0.992188 10.402344 -1.1875 C 10.472656 -1.335938 10.539062 -1.484375 10.605469 -1.582031 C 11.03125 -2.527344 11.449219 -3.417969 12.023438 -4.292969 C 12.710938 -5.257812 13.535156 -6.472656 14.105469 -7.765625 C 14.386719 -8.359375 14.503906 -8.921875 14.421875 -9.5625 C 14.433594 -9.664062 14.394531 -9.773438 14.347656 -9.832031 C 14.101562 -10.382812 13.367188 -10.835938 12.75 -10.910156 C 12.644531 -10.921875 12.542969 -10.933594 12.488281 -10.941406 C 12.066406 -10.886719 11.691406 -10.824219 11.265625 -10.769531 C 10.042969 -10.597656 8.898438 -10.210938 7.664062 -9.519531 C 7.269531 -9.300781 6.828125 -9.09375 6.4375 -8.875 C 6.21875 -8.796875 5.992188 -8.667969 5.824219 -8.582031 C 5.660156 -8.496094 5.496094 -8.464844 5.34375 -8.480469 C 5.1875 -8.5 5.039062 -8.570312 4.949219 -8.683594 C 4.707031 -8.871094 4.589844 -9.199219 4.675781 -9.503906 C 4.742188 -9.601562 4.746094 -9.652344 4.753906 -9.703125 C 4.816406 -9.800781 4.824219 -9.851562 4.828125 -9.902344 C 4.929688 -10.308594 4.765625 -10.695312 4.46875 -10.835938 C 4.371094 -10.898438 4.265625 -10.910156 4.164062 -10.925781 C 3.90625 -10.953125 3.628906 -10.828125 3.5 -10.636719 C 3.035156 -9.800781 2.429688 -9.085938 1.828125 -8.421875 C 1.644531 -8.183594 1.40625 -7.949219 1.21875 -7.710938 C 1.042969 -7.523438 0.863281 -7.332031 0.683594 -7.144531 C 0.445312 -6.910156 0.207031 -6.675781 0.0742188 -6.429688 C -0.363281 -5.800781 -0.902344 -5.238281 -1.390625 -4.664062 C -1.6875 -4.335938 -1.988281 -4.003906 -2.289062 -3.671875 C -2.480469 -3.378906 -2.71875 -3.148438 -2.90625 -2.90625 C -3.21875 -2.472656 -3.574219 -2.09375 -3.832031 -1.707031 C -4.011719 -1.519531 -4.039062 -1.261719 -3.96875 -0.988281 C -3.882812 -0.824219 -3.695312 -0.644531 -3.492188 -0.566406 C -3.390625 -0.554688 -3.339844 -0.550781 -3.234375 -0.539062 C -2.875 -0.496094 -2.5 -0.554688 -2.164062 -0.726562 C -1.714844 -0.988281 -1.3125 -1.304688 -0.910156 -1.625 C -0.800781 -1.664062 -0.734375 -1.761719 -0.675781 -1.808594 C -0.394531 -1.984375 -0.101562 -2.261719 0.183594 -2.4375 C 0.476562 -2.71875 0.816406 -2.941406 1.113281 -3.21875 C 1.457031 -3.492188 1.851562 -3.710938 2.195312 -3.984375 C 2.601562 -4.300781 3.105469 -4.609375 3.515625 -4.980469 L 3.691406 -5.117188 C 5.070312 -6.15625 6.453125 -7.25 8.066406 -8.058594 C 9.070312 -8.566406 10.125 -9.070312 11.347656 -9.242188 C 11.40625 -9.289062 11.507812 -9.273438 11.617188 -9.316406 C 11.671875 -9.308594 11.726562 -9.355469 11.78125 -9.347656 C 11.882812 -9.335938 11.933594 -9.328125 11.984375 -9.324219 C 12.191406 -9.300781 12.339844 -9.230469 12.484375 -9.109375 C 12.671875 -8.929688 12.746094 -8.660156 12.664062 -8.40625 C 12.65625 -8.355469 12.65625 -8.355469 12.65625 -8.355469 C 12.644531 -8.25 12.628906 -8.097656 12.558594 -7.949219 C 11.984375 -7.074219 11.402344 -6.144531 10.757812 -5.121094 C 10.753906 -5.070312 10.6875 -4.972656 10.632812 -4.929688 C 10.566406 -4.832031 10.503906 -4.734375 10.496094 -4.683594 C 10.433594 -4.585938 10.371094 -4.488281 10.300781 -4.339844 C 10.039062 -3.898438 9.828125 -3.453125 9.574219 -3.0625 C 9.503906 -2.914062 9.433594 -2.765625 9.363281 -2.617188 C 9.027344 -1.976562 8.753906 -1.429688 8.734375 -0.804688 C 8.730469 -0.335938 8.882812 0.152344 9.183594 0.714844 C 9.28125 0.777344 9.324219 0.835938 9.429688 0.847656 C 9.765625 1.09375 10.007812 1.28125 10.316406 1.316406 Z M 10.316406 1.316406 "/></g></g></g><g fill="#383a49" fill-opacity="1"><g transform="translate(428.759113, 624.057135)"><g><path d="M 0.0546875 0.425781 C 0.363281 0.460938 0.730469 0.453125 1.113281 0.339844 C 1.59375 0.238281 2.078125 0.140625 2.515625 -0.0195312 C 2.78125 -0.0390625 3 -0.117188 3.210938 -0.144531 C 4.132812 -0.40625 4.980469 -0.933594 5.71875 -1.421875 C 6.058594 -1.644531 6.339844 -1.820312 6.679688 -2.042969 C 6.796875 -2.132812 6.957031 -2.167969 7.070312 -2.257812 C 7.238281 -2.34375 7.398438 -2.375 7.554688 -2.359375 C 7.65625 -2.347656 7.710938 -2.339844 7.761719 -2.332031 C 7.761719 -2.332031 7.8125 -2.328125 7.8125 -2.328125 C 7.863281 -2.320312 8.011719 -2.25 8.109375 -2.1875 C 8.5 -1.933594 8.847656 -1.785156 9.3125 -1.730469 C 9.675781 -1.691406 9.992188 -1.707031 10.417969 -1.761719 C 11.6875 -1.871094 12.953125 -2.402344 14.378906 -3.386719 C 15.058594 -3.832031 15.703125 -4.4375 16.433594 -5.292969 C 16.683594 -5.628906 16.6875 -6.101562 16.347656 -6.351562 C 16.207031 -6.472656 16.058594 -6.542969 15.902344 -6.558594 C 15.695312 -6.585938 15.476562 -6.503906 15.296875 -6.316406 C 14.445312 -5.316406 13.523438 -4.589844 12.574219 -4.070312 C 11.789062 -3.640625 11.082031 -3.410156 10.277344 -3.242188 C 10.171875 -3.253906 10.121094 -3.261719 10.070312 -3.265625 C 9.8125 -3.296875 9.617188 -3.425781 9.488281 -3.648438 C 9.308594 -3.933594 9.347656 -4.242188 9.539062 -4.53125 C 9.597656 -4.578125 9.660156 -4.675781 9.71875 -4.722656 C 9.785156 -4.871094 9.910156 -5.011719 10.03125 -5.15625 C 10.625 -5.765625 11.175781 -6.433594 11.683594 -7.210938 C 11.75 -7.308594 11.8125 -7.40625 11.871094 -7.453125 C 12.519531 -8.527344 13.160156 -9.5 13.5 -10.613281 C 13.574219 -10.8125 13.652344 -11.011719 13.726562 -11.214844 C 13.910156 -11.871094 14.136719 -12.472656 14.15625 -13.101562 C 14.167969 -13.203125 14.050781 -13.53125 13.726562 -13.882812 C 13.453125 -14.230469 13.160156 -14.421875 13.058594 -14.433594 C 13.058594 -14.433594 13.007812 -14.441406 12.953125 -14.445312 C 12.902344 -14.453125 12.902344 -14.453125 12.851562 -14.457031 C 12.175781 -14.484375 11.472656 -14.304688 10.535156 -13.890625 C 10.03125 -13.636719 9.628906 -13.316406 9.277344 -12.992188 C 8.558594 -12.238281 7.832031 -11.382812 7.339844 -10.339844 C 7.257812 -10.089844 7.035156 -9.957031 6.765625 -9.886719 C 6.710938 -9.890625 6.609375 -9.902344 6.558594 -9.910156 C 6.351562 -9.933594 6.203125 -10.003906 6.058594 -10.125 C 6.015625 -10.183594 5.96875 -10.242188 5.921875 -10.296875 C 5.832031 -10.414062 5.785156 -10.472656 5.734375 -10.476562 C 5.597656 -10.652344 5.449219 -10.71875 5.292969 -10.738281 C 5.191406 -10.75 5.082031 -10.710938 4.921875 -10.679688 C 4.644531 -10.554688 4.359375 -10.378906 4.085938 -10.253906 C 3.167969 -9.574219 2.242188 -8.847656 1.246094 -7.917969 C 0.117188 -6.792969 -0.746094 -5.691406 -1.355469 -4.503906 C -1.425781 -4.355469 -1.546875 -4.214844 -1.609375 -4.117188 C -1.679688 -3.96875 -1.800781 -3.824219 -1.8125 -3.722656 L -1.824219 -3.617188 C -2.03125 -2.753906 -2.226562 -1.988281 -2.058594 -1.183594 C -1.914062 -0.644531 -1.59375 -0.238281 -1.003906 0.0898438 C -0.664062 0.289062 -0.308594 0.382812 0.0546875 0.425781 Z M 3.1875 -7.53125 C 3.195312 -7.582031 3.304688 -7.621094 3.308594 -7.671875 C 3.367188 -7.71875 3.367188 -7.71875 3.375 -7.769531 C 3.910156 -8.335938 4.527344 -8.683594 5.203125 -9.074219 C 5.371094 -9.160156 5.53125 -9.191406 5.6875 -9.175781 C 5.789062 -9.164062 5.945312 -9.144531 6.042969 -9.082031 C 6.28125 -8.894531 6.40625 -8.617188 6.375 -8.359375 C 6.332031 -8 6.296875 -7.6875 6.207031 -7.386719 C 6.160156 -6.972656 6.070312 -6.667969 6.082031 -6.300781 C 6.128906 -5.824219 6.179688 -5.347656 6.273438 -4.8125 C 6.300781 -4.601562 6.320312 -4.335938 6.347656 -4.121094 C 6.363281 -3.808594 6.222656 -3.507812 5.949219 -3.382812 C 5.773438 -3.246094 5.605469 -3.164062 5.433594 -3.027344 C 5.035156 -2.757812 4.585938 -2.496094 4.136719 -2.234375 C 3.230469 -1.660156 2.207031 -1.414062 1.242188 -1.214844 C 1.132812 -1.175781 1.03125 -1.1875 0.921875 -1.148438 C 0.703125 -1.070312 0.496094 -1.09375 0.339844 -1.113281 C 0.289062 -1.117188 0.238281 -1.125 0.183594 -1.128906 C 0.132812 -1.136719 0.132812 -1.136719 0.0820312 -1.140625 C -0.125 -1.167969 -0.273438 -1.238281 -0.417969 -1.359375 C -0.554688 -1.53125 -0.636719 -1.699219 -0.609375 -1.957031 C -0.59375 -2.53125 -0.429688 -3.035156 -0.15625 -3.578125 C 0.257812 -4.417969 0.820312 -5.191406 1.664062 -6.140625 L 1.722656 -6.183594 C 2.09375 -6.664062 2.574219 -7.183594 3.1875 -7.53125 Z M 11.460938 -12.421875 C 11.613281 -12.402344 11.765625 -12.335938 11.855469 -12.21875 C 12.09375 -12.035156 12.214844 -11.707031 12.132812 -11.453125 C 11.730469 -9.824219 10.796875 -8.574219 9.917969 -7.316406 C 9.730469 -7.074219 9.488281 -6.789062 9.296875 -6.5 C 9.164062 -6.253906 8.835938 -6.132812 8.578125 -6.164062 C 8.578125 -6.164062 8.527344 -6.171875 8.527344 -6.171875 C 8.222656 -6.257812 7.984375 -6.445312 7.914062 -6.765625 C 7.664062 -7.738281 8.351562 -9.125 8.75 -9.859375 C 9.011719 -10.300781 9.96875 -11.761719 11.027344 -12.316406 C 11.195312 -12.402344 11.355469 -12.433594 11.460938 -12.421875 Z M 11.460938 -12.421875 "/></g></g></g><g fill="#383a49" fill-opacity="1"><g transform="translate(442.598766, 625.684002)"><g><path d="M 1.238281 1.035156 C 1.34375 1.046875 1.394531 1.054688 1.496094 1.066406 C 2.019531 1.074219 2.546875 1.03125 3.128906 0.996094 L 3.179688 1.003906 C 3.765625 0.914062 4.359375 0.773438 5.019531 0.484375 C 5.84375 0.164062 6.578125 -0.273438 7.308594 -0.710938 C 7.757812 -0.972656 8.214844 -1.285156 8.65625 -1.496094 C 8.941406 -1.671875 9.28125 -1.894531 9.511719 -2.074219 C 9.625 -2.167969 9.800781 -2.304688 9.914062 -2.394531 C 10.03125 -2.484375 10.144531 -2.578125 10.265625 -2.71875 C 10.382812 -2.8125 10.550781 -2.894531 10.664062 -2.988281 C 10.839844 -3.125 11.011719 -3.261719 11.179688 -3.34375 C 11.660156 -3.863281 12.183594 -4.328125 12.664062 -4.847656 C 12.84375 -5.035156 13.074219 -5.21875 13.253906 -5.40625 C 13.3125 -5.449219 13.375 -5.546875 13.433594 -5.59375 C 13.546875 -5.683594 13.664062 -5.777344 13.726562 -5.875 C 14.027344 -6.203125 14.023438 -6.625 13.746094 -6.917969 C 13.601562 -7.039062 13.460938 -7.160156 13.253906 -7.183594 C 13.097656 -7.203125 12.878906 -7.125 12.757812 -6.980469 C 12.296875 -6.617188 11.890625 -6.296875 11.535156 -5.921875 C 10.503906 -4.734375 9.226562 -3.679688 7.648438 -2.714844 C 6.628906 -2.046875 5.621094 -1.484375 4.617188 -0.976562 C 3.730469 -0.554688 2.710938 -0.363281 1.523438 -0.5 L 1.472656 -0.507812 C 1.058594 -0.554688 0.761719 -0.695312 0.535156 -0.984375 C 0.265625 -1.382812 0.328125 -1.898438 0.347656 -2.054688 C 0.371094 -2.261719 0.445312 -2.460938 0.523438 -2.660156 C 0.578125 -2.707031 0.59375 -2.808594 0.65625 -2.90625 C 0.800781 -3.257812 0.941406 -3.554688 1.140625 -3.898438 C 1.519531 -4.480469 1.957031 -5.058594 2.339844 -5.640625 C 2.460938 -5.785156 2.53125 -5.933594 2.652344 -6.074219 C 3.28125 -6.996094 4.035156 -8.058594 4.988281 -9.046875 C 5.765625 -9.847656 6.539062 -10.644531 7.308594 -11.390625 L 7.359375 -11.386719 C 7.601562 -11.671875 8.027344 -11.726562 8.34375 -11.742188 C 9.066406 -11.65625 9.789062 -11.570312 10.46875 -11.542969 C 10.984375 -11.484375 11.5 -11.421875 12.023438 -11.414062 C 12.28125 -11.382812 12.539062 -11.351562 12.796875 -11.324219 C 13.679688 -11.269531 14.609375 -11.160156 15.496094 -11.109375 C 15.757812 -11.132812 15.933594 -11.269531 16.042969 -11.308594 C 16.167969 -11.503906 16.296875 -11.695312 16.261719 -11.859375 C 16.261719 -12.277344 15.980469 -12.570312 15.566406 -12.621094 C 15.515625 -12.625 15.464844 -12.632812 15.414062 -12.636719 C 15.207031 -12.664062 15.042969 -12.628906 14.839844 -12.652344 L 14.425781 -12.703125 C 13.695312 -12.734375 12.914062 -12.773438 12.191406 -12.859375 C 12.089844 -12.871094 12.039062 -12.878906 11.933594 -12.890625 C 11.675781 -12.921875 11.417969 -12.949219 11.160156 -12.980469 C 11.003906 -13 10.847656 -13.019531 10.699219 -13.085938 C 10.492188 -13.113281 10.300781 -13.238281 10.164062 -13.414062 C 10.03125 -13.636719 10.003906 -13.851562 10.082031 -14.050781 C 10.085938 -14.101562 10.085938 -14.101562 10.085938 -14.101562 C 10.097656 -14.207031 10.167969 -14.355469 10.296875 -14.546875 C 10.410156 -14.640625 10.535156 -14.78125 10.65625 -14.925781 C 10.902344 -15.261719 11.203125 -15.59375 11.558594 -15.917969 C 12.152344 -16.53125 12.800781 -17.132812 13.386719 -17.691406 C 13.683594 -17.972656 14.035156 -18.296875 14.332031 -18.578125 C 14.445312 -18.667969 14.503906 -18.714844 14.566406 -18.8125 C 14.917969 -19.136719 15.273438 -19.460938 15.628906 -19.835938 C 15.984375 -20.164062 16.289062 -20.546875 16.648438 -20.921875 C 16.941406 -21.203125 17.242188 -21.53125 17.542969 -21.863281 C 17.785156 -22.148438 17.8125 -22.355469 17.828125 -22.511719 C 17.761719 -22.832031 17.632812 -23.058594 17.328125 -23.144531 C 17.230469 -23.210938 17.179688 -23.214844 17.074219 -23.226562 C 16.921875 -23.246094 16.761719 -23.210938 16.523438 -22.980469 C 16.226562 -22.699219 15.925781 -22.367188 15.628906 -22.039062 C 15.269531 -21.660156 14.910156 -21.285156 14.550781 -20.90625 C 14.136719 -20.484375 13.726562 -20.113281 13.316406 -19.742188 C 12.964844 -19.417969 12.605469 -19.042969 12.253906 -18.714844 C 11.304688 -17.78125 10.410156 -16.839844 9.519531 -15.949219 C 9.160156 -15.570312 8.800781 -15.195312 8.496094 -14.8125 C 8.144531 -14.488281 7.835938 -14.105469 7.484375 -13.78125 C 7.246094 -13.546875 6.859375 -13.382812 6.550781 -13.417969 C 5.511719 -13.488281 4.421875 -13.5625 3.285156 -13.699219 C 3.027344 -13.726562 2.808594 -13.648438 2.636719 -13.511719 C 2.46875 -13.425781 2.390625 -13.226562 2.367188 -13.019531 C 2.3125 -12.554688 2.644531 -12.253906 3.109375 -12.199219 C 3.109375 -12.199219 3.160156 -12.195312 3.160156 -12.195312 C 3.210938 -12.1875 3.265625 -12.179688 3.316406 -12.175781 C 3.472656 -12.15625 3.574219 -12.144531 3.722656 -12.074219 C 3.828125 -12.0625 3.878906 -12.058594 3.980469 -12.046875 C 4.292969 -12.007812 4.480469 -11.828125 4.605469 -11.554688 C 4.675781 -11.28125 4.640625 -10.972656 4.460938 -10.785156 C 4.398438 -10.6875 4.332031 -10.589844 4.277344 -10.542969 C 4.15625 -10.402344 4.03125 -10.257812 3.96875 -10.160156 C 3.785156 -9.921875 3.605469 -9.734375 3.417969 -9.492188 C 2.992188 -8.96875 2.5625 -8.441406 2.136719 -7.917969 C 1.765625 -7.4375 1.386719 -6.90625 1.070312 -6.417969 C 0.820312 -6.082031 0.566406 -5.691406 0.316406 -5.355469 C -0.4375 -4.292969 -0.925781 -3.25 -1.15625 -2.179688 C -1.25 -1.824219 -1.25 -1.402344 -1.136719 -1.023438 C -0.890625 0 0.15625 0.910156 1.238281 1.035156 Z M 1.238281 1.035156 "/></g></g></g><g fill="#383a49" fill-opacity="1"><g transform="translate(453.133427, 626.922363)"><g><path d="M 2.617188 0.882812 C 3.546875 0.992188 4.230469 0.96875 4.875 0.835938 C 5.089844 0.808594 5.300781 0.78125 5.46875 0.695312 C 5.945312 0.644531 6.375 0.539062 6.808594 0.433594 C 7.734375 0.125 8.660156 -0.1875 9.535156 -0.503906 L 9.753906 -0.582031 C 10.140625 -0.746094 10.636719 -0.949219 11.136719 -1.203125 C 11.632812 -1.40625 12.136719 -1.714844 12.761719 -2.113281 C 13.269531 -2.417969 13.949219 -2.863281 14.578125 -3.3125 C 15.035156 -3.625 15.445312 -3.996094 15.898438 -4.308594 C 16.078125 -4.496094 16.308594 -4.679688 16.535156 -4.808594 C 16.597656 -4.90625 16.707031 -4.945312 16.765625 -4.992188 C 16.824219 -5.039062 16.933594 -5.078125 16.9375 -5.128906 C 17.226562 -5.355469 17.28125 -5.820312 17.054688 -6.109375 C 16.917969 -6.285156 16.722656 -6.410156 16.515625 -6.433594 C 16.414062 -6.449219 16.257812 -6.464844 16.089844 -6.378906 C 15.691406 -6.113281 15.292969 -5.847656 14.890625 -5.527344 C 14.832031 -5.480469 14.773438 -5.4375 14.710938 -5.339844 C 14.488281 -5.207031 14.3125 -5.070312 14.132812 -4.882812 C 13.671875 -4.519531 13.203125 -4.101562 12.644531 -3.800781 C 12.152344 -3.597656 11.695312 -3.285156 11.246094 -3.023438 C 10.566406 -2.578125 9.949219 -2.234375 9.242188 -2.003906 C 9.132812 -1.964844 9.078125 -1.96875 8.96875 -1.929688 C 8.917969 -1.9375 8.808594 -1.894531 8.75 -1.851562 C 7.433594 -1.324219 6.292969 -0.988281 5.21875 -0.746094 C 4.308594 -0.59375 3.519531 -0.527344 2.742188 -0.621094 C 2.226562 -0.679688 1.769531 -0.785156 1.316406 -0.945312 C 0.765625 -1.167969 0.445312 -1.570312 0.351562 -2.105469 C 0.210938 -2.699219 0.375 -3.203125 0.527344 -3.601562 C 0.546875 -3.757812 0.617188 -3.90625 0.632812 -4.0625 C 0.730469 -4.417969 1.023438 -4.695312 1.339844 -4.710938 C 1.546875 -4.6875 1.707031 -4.722656 1.867188 -4.753906 C 2.183594 -4.769531 2.5 -4.785156 2.816406 -4.800781 L 2.976562 -4.832031 C 3.828125 -4.941406 4.730469 -5.046875 5.59375 -5.257812 C 6.183594 -5.398438 6.835938 -5.585938 7.601562 -5.859375 C 8.152344 -6.109375 8.757812 -6.351562 9.367188 -6.648438 L 9.539062 -6.785156 C 10.265625 -7.171875 10.992188 -7.554688 11.621094 -8.003906 C 12.257812 -8.507812 12.78125 -8.96875 13.253906 -9.4375 C 13.921875 -10.195312 14.429688 -10.972656 14.746094 -11.878906 C 14.757812 -11.980469 14.777344 -12.136719 14.742188 -12.296875 C 14.75 -12.351562 14.761719 -12.453125 14.714844 -12.511719 C 14.730469 -12.613281 14.6875 -12.722656 14.707031 -12.878906 C 14.675781 -13.039062 14.640625 -13.199219 14.359375 -13.496094 C 13.992188 -13.90625 13.550781 -14.167969 13.035156 -14.226562 C 12.929688 -14.238281 12.878906 -14.246094 12.78125 -14.308594 C 12.574219 -14.332031 12.417969 -14.351562 12.265625 -14.371094 C 11.957031 -14.40625 11.742188 -14.378906 11.53125 -14.351562 C 11.144531 -14.1875 10.710938 -14.082031 10.332031 -13.96875 C 9.792969 -13.824219 9.304688 -13.671875 8.757812 -13.472656 C 7.824219 -13.113281 6.988281 -12.6875 6.359375 -12.238281 C 6.070312 -12.007812 5.789062 -11.832031 5.507812 -11.65625 C 5.222656 -11.480469 5 -11.347656 4.769531 -11.167969 C 4.710938 -11.121094 4.652344 -11.074219 4.542969 -11.035156 C 4.082031 -10.671875 3.625 -10.359375 3.222656 -10.039062 C 2.464844 -9.394531 1.753906 -8.695312 1.082031 -7.882812 C 0.65625 -7.359375 0.167969 -6.785156 -0.109375 -6.191406 C -0.789062 -4.855469 -1.195312 -3.648438 -1.230469 -2.449219 C -1.210938 -1.714844 -0.980469 -1.003906 -0.53125 -0.375 C -0.390625 -0.253906 -0.121094 0.144531 0.175781 0.28125 C 0.675781 0.5 1.230469 0.667969 1.796875 0.734375 C 2.101562 0.824219 2.359375 0.851562 2.617188 0.882812 Z M 12.449219 -12.828125 C 12.65625 -12.804688 12.902344 -12.671875 12.988281 -12.503906 C 13.171875 -12.273438 13.1875 -11.957031 13.050781 -11.710938 C 12.65625 -11.023438 12.222656 -10.449219 11.53125 -9.902344 C 10.300781 -8.789062 8.734375 -7.925781 6.648438 -7.125 C 6.210938 -6.964844 5.78125 -6.859375 5.347656 -6.753906 C 5.1875 -6.71875 5.027344 -6.6875 4.917969 -6.648438 C 4.652344 -6.625 4.382812 -6.554688 4.117188 -6.53125 C 4.0625 -6.484375 3.953125 -6.445312 3.847656 -6.457031 C 3.738281 -6.417969 3.6875 -6.425781 3.582031 -6.4375 C 3.324219 -6.46875 3.132812 -6.59375 3 -6.820312 C 2.824219 -7.101562 2.867188 -7.464844 3.050781 -7.703125 C 3.730469 -8.566406 4.542969 -9.257812 5.5 -9.824219 C 5.898438 -10.09375 6.347656 -10.351562 6.867188 -10.761719 C 7.898438 -11.53125 9.113281 -12.070312 10.632812 -12.519531 C 10.742188 -12.558594 10.851562 -12.597656 10.960938 -12.636719 C 11.175781 -12.664062 11.394531 -12.746094 11.613281 -12.824219 C 11.773438 -12.855469 11.980469 -12.832031 12.140625 -12.867188 C 12.191406 -12.859375 12.242188 -12.855469 12.296875 -12.847656 C 12.347656 -12.839844 12.398438 -12.835938 12.449219 -12.828125 Z M 12.449219 -12.828125 "/></g></g></g></svg>