<?xml version="1.0" encoding="utf-8"?><!-- Uploaded to: SVG Repo, www.svgrepo.com, Generator: SVG Repo Mixer Tools -->
<svg width="800px" height="800px" viewBox="0 0 24 24" fill="none" xmlns="http://www.w3.org/2000/svg">
<path d="M3 20C2.44772 20 2 20.4477 2 21C2 21.5523 2.44772 22 3 22V20ZM21 22C21.5523 22 22 21.5523 22 21C22 20.4477 21.5523 20 21 20V22ZM7 17C6.44772 17 6 17.4477 6 18C6 18.5523 6.44772 19 7 19V17ZM14 19C14.5523 19 15 18.5523 15 18C15 17.4477 14.5523 17 14 17V19ZM9 14C8.44772 14 8 14.4477 8 15C8 15.5523 8.44772 16 9 16V14ZM12 16C12.5523 16 13 15.5523 13 15C13 14.4477 12.5523 14 12 14V16ZM8 5V4C7.44772 4 7 4.44772 7 5H8ZM13 5H14C14 4.44772 13.5523 4 13 4V5ZM13 12V13C13.5523 13 14 12.5523 14 12H13ZM8 12H7C7 12.5523 7.44772 13 8 13V12ZM9 5V6C9.45887 6 9.85885 5.6877 9.97014 5.24254L9 5ZM11.5 3L12.4701 2.75746C12.3589 2.3123 11.9589 2 11.5 2V3ZM9.5 3V2C9.04113 2 8.64115 2.3123 8.52986 2.75746L9.5 3ZM12 5L11.0299 5.24254C11.1411 5.6877 11.5411 6 12 6V5ZM13 7C12.4477 7 12 7.44772 12 8C12 8.55228 12.4477 9 13 9V7ZM16.0915 20.1435C15.6184 20.4285 15.466 21.0431 15.7511 21.5161C16.0361 21.9892 16.6506 22.1416 17.1237 21.8565L16.0915 20.1435ZM3 22H21V20H3V22ZM7 19H14V17H7V19ZM9 16H12V14H9V16ZM12 5V12H14V5H12ZM13 11H8V13H13V11ZM9 12V5H7V12H9ZM8 6H9V4H8V6ZM9.97014 5.24254L10.4701 3.24254L8.52986 2.75746L8.02986 4.75746L9.97014 5.24254ZM9.5 4H11.5V2H9.5V4ZM10.5299 3.24254L11.0299 5.24254L12.9701 4.75746L12.4701 2.75746L10.5299 3.24254ZM12 6H13V4H12V6ZM13 9C16.3137 9 19 11.6863 19 15H21C21 10.5817 17.4183 7 13 7V9ZM19 15C19 17.1814 17.8365 19.092 16.0915 20.1435L17.1237 21.8565C19.4443 20.4582 21 17.9113 21 15H19Z" fill="#000000"/>
</svg>