<?xml version="1.0" encoding="iso-8859-1"?>
<!-- Uploaded to: SVG Repo, www.svgrepo.com, Generator: SVG Repo Mixer Tools -->
<svg fill="#000000" height="800px" width="800px" version="1.1" id="Layer_1" xmlns="http://www.w3.org/2000/svg" xmlns:xlink="http://www.w3.org/1999/xlink" 
	 viewBox="0 0 512 512" xml:space="preserve">
<g>
	<g>
		<g>
			<path d="M490.667,74.667H167.979c-9.472-36.807-42.88-64-82.645-64C38.202,10.667,0,48.869,0,96v320
				c0,0.461,0.012,0.914,0.034,1.36c0.73,46.501,38.624,83.973,85.299,83.973h405.333c11.782,0,21.333-9.551,21.333-21.333V96
				C512,84.218,502.449,74.667,490.667,74.667z M42.667,96c0-23.567,19.099-42.667,42.667-42.667S128,72.433,128,96v246.081
				c-12.551-7.26-27.123-11.415-42.667-11.415c-15.543,0-30.116,4.155-42.667,11.415V96z M469.333,458.667h-384
				c-23.567,0-42.667-19.099-42.667-42.667s19.099-42.667,42.667-42.667S128,392.433,128,416c0,14.222,10.667,21.333,21.333,21.333
				h0l0,0c10.667,0,21.333-7.111,21.333-21.333V117.333h298.667V458.667z"/>
			<path d="M234.667,352h170.667c11.782,0,21.333-9.551,21.333-21.333V224c0-6.715-3.161-13.038-8.533-17.067l-85.333-64
				c-7.585-5.689-18.015-5.689-25.6,0l-85.333,64c-5.372,4.029-8.533,10.352-8.533,17.067v106.667
				C213.333,342.449,222.885,352,234.667,352z M256,234.667l64-48l64,48v74.667H256V234.667z"/>
			<path d="M403.836,373.333h-41.173c-11.782,0-21.333,9.551-21.333,21.333c0,11.782,9.551,21.333,21.333,21.333h41.173
				c11.782,0,21.333-9.551,21.333-21.333C425.169,382.885,415.618,373.333,403.836,373.333z"/>
		</g>
	</g>
</g>
</svg>